<svg version="1.1" id="Layer_1" xmlns="http://www.w3.org/2000/svg" xmlns:xlink="http://www.w3.org/1999/xlink" x="0px" y="0px"
	 width="100%" viewBox="0 0 705 368" enable-background="new 0 0 705 368" xml:space="preserve">
<path fill="#FEFEFE" opacity="1.000000" stroke="none" 
	d="
M528.000000,369.000000 
	C353.540497,369.000000 179.581024,368.988800 5.621572,369.079376 
	C2.098540,369.081207 0.883582,368.645325 0.888202,364.623505 
	C1.025817,244.818222 1.022730,125.012733 0.893898,5.207437 
	C0.889897,1.486960 1.798862,0.911323 5.290735,0.912774 
	C237.403305,1.009193 469.515930,1.013490 701.628479,0.888882 
	C705.660095,0.886718 706.082092,2.111351 706.079285,5.626511 
	C705.983826,125.265244 705.977356,244.904099 706.101929,364.542786 
	C706.105957,368.395081 705.106262,369.096191 701.459045,369.088257 
	C643.806213,368.962646 586.153076,369.000000 528.000000,369.000000 
z"/>
<path fill="#080404" opacity="1.000000" stroke="none" 
	d="
M480.968201,208.132736 
	C484.910889,207.507004 487.160522,209.074860 489.404480,211.762863 
	C504.877106,230.297531 520.523926,248.686829 536.118286,267.119843 
	C537.245422,268.452179 538.400391,269.760956 539.678101,271.237457 
	C540.982483,269.300903 540.464294,267.617798 540.468201,266.052399 
	C540.512695,248.395447 540.656128,230.735855 540.383545,213.083008 
	C540.315796,208.697449 541.770691,207.827377 545.745056,208.017761 
	C549.184814,208.182526 551.408142,207.889618 551.377808,212.773590 
	C551.143982,250.418335 551.201538,288.065338 551.329651,325.711090 
	C551.341248,329.123688 550.589783,330.070007 547.041748,330.195496 
	C542.286560,330.363617 539.239990,328.863129 536.162048,325.134674 
	C521.110413,306.902069 505.709900,288.957275 490.404205,270.934967 
	C489.364655,269.710907 488.620911,268.136719 486.916840,267.500610 
	C485.739655,269.014618 486.331482,270.739166 486.327057,272.325531 
	C486.277435,290.149017 486.068909,307.977478 486.441895,325.793304 
	C486.545929,330.764343 484.010742,330.103943 480.994049,330.061005 
	C478.050995,330.019104 475.458282,330.873413 475.494110,325.814850 
	C475.760681,288.170563 475.706116,250.523224 475.540863,212.877747 
	C475.523163,208.844315 476.740082,207.487137 480.968201,208.132736 
z"/>
<path fill="#0B0707" opacity="1.000000" stroke="none" 
	d="
M390.169434,211.803513 
	C415.273346,222.177353 430.072052,243.440811 430.149414,268.835022 
	C430.225586,293.833099 415.789337,316.183441 392.453033,325.489227 
	C369.050598,334.821381 347.026306,331.224426 328.390106,314.316528 
	C309.959137,297.594818 303.689911,276.219635 310.773895,252.186768 
	C317.949890,227.841751 334.860474,213.483856 359.856934,208.839981 
	C370.083710,206.940018 380.052551,208.246994 390.169434,211.803513 
z"/>
<path fill="#0D0909" opacity="1.000000" stroke="none" 
	d="
M211.008179,238.062469 
	C206.033600,244.304474 203.150787,251.126678 201.266327,258.458862 
	C200.298676,262.223907 200.570297,264.024353 205.424057,263.932343 
	C222.241257,263.613647 239.069397,263.914978 255.890503,263.725464 
	C259.493256,263.684906 260.720886,264.403931 260.675293,268.311981 
	C260.451691,287.464539 260.493835,306.621765 260.648743,325.775696 
	C260.676178,329.168732 259.871338,330.171356 256.302551,330.286255 
	C229.784225,331.139893 209.164856,320.967499 196.420441,297.408417 
	C175.607300,258.933716 202.538452,211.034897 246.216080,208.060806 
	C249.364792,207.846405 250.457413,208.468811 250.532684,211.928131 
	C250.634567,216.610107 250.277863,218.916016 244.326736,219.429886 
	C230.851410,220.593430 219.798111,227.219452 211.008179,238.062469 
z"/>
<path fill="#0B0707" opacity="1.000000" stroke="none" 
	d="
M630.358765,324.713013 
	C605.182251,312.070984 591.839172,287.825317 595.144165,261.177643 
	C598.261719,236.040665 617.421387,215.197205 642.700684,209.478439 
	C644.482300,209.075409 646.303894,208.840805 648.113403,208.571457 
	C656.108582,207.381302 655.968628,207.386368 655.928772,215.356613 
	C655.914673,218.179489 655.050781,218.877457 652.294678,219.079712 
	C629.330322,220.764786 611.123413,237.013123 606.320496,259.518158 
	C605.477722,263.467072 606.799011,263.898468 610.175232,263.872986 
	C627.330139,263.743561 644.487732,263.918610 661.641479,263.726807 
	C665.180969,263.687256 666.035583,264.682983 666.004700,268.146759 
	C665.832397,287.466400 665.844238,306.789001 665.997437,326.108948 
	C666.023254,329.365448 665.162903,330.220947 661.882019,330.277100 
	C651.107727,330.461548 640.617432,329.440979 630.358765,324.713013 
z"/>
<path fill="#0A0707" opacity="1.000000" stroke="none" 
	d="
M614.379150,134.778275 
	C592.437134,127.648705 581.433533,110.586739 582.983276,86.584129 
	C584.255554,66.878845 598.426270,51.404739 618.853943,47.414333 
	C642.907776,42.715591 666.117126,57.821350 670.831665,81.243973 
	C676.135803,107.596016 661.329773,130.906250 636.068176,135.646683 
	C628.985352,136.975815 621.817688,136.617691 614.379150,134.778275 
z"/>
<path fill="#090505" opacity="1.000000" stroke="none" 
	d="
M463.967102,106.879288 
	C456.599060,125.458420 442.692017,133.784546 423.568756,134.127563 
	C414.087036,134.297668 404.598450,134.071365 395.115875,134.215988 
	C392.525757,134.255478 391.757233,133.535309 391.766693,130.898727 
	C391.861023,104.607986 391.818939,78.316788 391.837921,52.025726 
	C391.838928,50.655624 391.268341,48.875458 393.780426,48.935642 
	C406.247437,49.234322 418.855591,47.597240 431.161896,49.608448 
	C458.429657,54.064774 472.546173,79.006050 463.967102,106.879288 
z"/>
<path fill="#0F0B0B" opacity="1.000000" stroke="none" 
	d="
M267.136078,61.018040 
	C267.136078,58.356213 267.386505,56.154697 267.082794,54.032490 
	C266.491333,49.899475 267.967133,48.868057 272.147339,48.732201 
	C276.836273,48.579823 277.401917,50.229137 277.427521,54.332672 
	C277.537567,71.978149 276.406738,89.653580 278.035950,107.263992 
	C278.800720,115.530807 282.440491,122.616463 290.697449,125.467178 
	C299.074493,128.359375 307.486206,128.009674 314.447266,121.373840 
	C318.905640,117.123764 320.839844,111.557701 320.950317,105.633049 
	C321.273285,88.315605 321.449005,70.988647 321.210175,53.671921 
	C321.144684,48.924011 323.160034,48.917992 326.750397,48.801922 
	C330.644440,48.676044 331.805237,49.744965 331.693604,53.727230 
	C331.184967,71.869576 332.475677,90.052025 330.998260,108.167343 
	C329.547119,125.959984 317.948120,136.185654 299.796478,136.357071 
	C281.520721,136.529663 269.932678,126.735176 267.902191,108.932533 
	C266.104492,93.170471 267.539520,77.319611 267.136078,61.018040 
z"/>
<path fill="#0B0707" opacity="1.000000" stroke="none" 
	d="
M44.184402,68.435661 
	C46.707047,51.174553 64.052025,44.864189 79.714241,47.268723 
	C85.076332,48.091942 89.900528,50.083183 94.075378,53.693340 
	C96.336777,55.648857 97.357178,57.230160 94.225700,59.195007 
	C93.389389,59.719749 92.647224,60.430355 91.959320,61.148960 
	C90.036240,63.157860 88.749649,63.798325 86.200653,61.211975 
	C79.771767,54.688869 67.204651,54.440422 59.936310,60.084328 
	C52.994110,65.474983 53.341972,76.077988 60.650578,80.966904 
	C63.856941,83.111717 67.486130,84.347443 71.099983,85.589470 
	C74.555077,86.776955 78.066460,87.812691 81.478745,89.110619 
	C93.818245,93.804199 98.962891,101.227585 98.293320,113.184891 
	C97.674362,124.238380 90.602516,132.343216 78.463936,135.078613 
	C66.234581,137.834457 54.651230,136.748215 44.808929,127.819664 
	C42.406754,125.640511 42.092667,123.953354 45.110523,122.157364 
	C46.242065,121.483955 47.282063,120.584465 48.190762,119.624298 
	C49.949368,117.766075 50.996994,117.985046 52.795593,119.978493 
	C59.691277,127.621239 71.291634,129.212723 80.169464,124.038864 
	C84.999611,121.223946 87.703613,117.102310 87.549011,111.374153 
	C87.396729,105.732063 84.424171,101.983231 79.327217,100.003609 
	C73.606728,97.781815 67.764954,95.874428 61.999386,93.766167 
	C48.856834,88.960411 43.914440,82.045555 44.184402,68.435661 
z"/>
<path fill="#070303" opacity="1.000000" stroke="none" 
	d="
M173.846588,116.999084 
	C173.846588,98.671425 173.704193,80.841728 173.953613,63.017509 
	C174.011017,58.915764 172.734848,57.983612 168.918274,58.154106 
	C162.266983,58.451221 155.582169,58.009495 148.932297,58.322090 
	C144.995590,58.507153 145.568176,56.106747 145.741455,53.885899 
	C145.904144,51.800995 144.258347,48.830887 148.813309,48.872326 
	C168.805344,49.054192 188.801361,49.076283 208.792603,48.854122 
	C213.258942,48.804489 211.906265,51.536285 212.021713,53.723492 
	C212.151001,56.172913 212.748474,58.608402 208.507614,58.348511 
	C201.701996,57.931442 194.845932,58.408199 188.023621,58.162487 
	C184.755142,58.044769 183.841003,58.979973 183.863266,62.296059 
	C184.014236,84.787949 183.768448,107.283760 184.082062,129.772278 
	C184.148361,134.526642 181.912384,134.206360 178.739746,134.209946 
	C175.704834,134.213364 173.238953,134.452606 173.747192,129.983704 
	C174.214859,125.871559 173.846603,121.664360 173.846588,116.999084 
z"/>
<path fill="#050101" opacity="1.000000" stroke="none" 
	d="
M133.998734,216.068817 
	C133.997849,222.998627 133.997849,222.998718 127.440910,222.998734 
	C100.442009,222.998764 73.440811,222.812866 46.446060,223.147659 
	C40.697418,223.218948 42.244598,219.957855 41.961323,216.934921 
	C41.629108,213.389679 42.308586,211.844131 46.582909,211.880295 
	C74.413116,212.115753 102.246384,212.035965 130.078308,211.947433 
	C132.858276,211.938599 134.692139,212.210800 133.998734,216.068817 
z"/>
<path fill="#050101" opacity="1.000000" stroke="none" 
	d="
M95.000000,264.001221 
	C106.996956,264.001221 118.496162,264.127167 129.989426,263.921143 
	C133.247879,263.862732 134.539246,264.728790 134.027069,268.006744 
	C133.849167,269.145294 133.861664,270.354736 134.025696,271.497528 
	C134.434097,274.343018 133.297165,275.086090 130.486343,275.063110 
	C114.325058,274.930878 98.162117,274.998718 81.999741,274.998749 
	C70.002922,274.998749 58.004055,274.877197 46.010628,275.078827 
	C42.752995,275.133575 41.460594,274.271637 41.972939,270.993408 
	C42.150883,269.854858 42.138332,268.645447 41.974316,267.502625 
	C41.565956,264.657349 42.702496,263.914276 45.513474,263.936890 
	C61.841427,264.068481 78.170982,264.001251 95.000000,264.001221 
z"/>
<path fill="#050101" opacity="1.000000" stroke="none" 
	d="
M89.000000,326.998779 
	C74.337082,326.998779 60.167484,326.749664 46.014767,327.129517 
	C40.839367,327.268433 42.017174,324.254333 42.017441,321.500214 
	C42.017704,318.746613 40.849026,315.822632 46.012100,315.872620 
	C74.002052,316.143707 101.997398,316.143646 129.987350,315.872620 
	C135.149399,315.822693 133.983032,318.745361 133.982590,321.499664 
	C133.982162,324.253113 135.163101,327.278381 129.985519,327.129303 
	C116.500267,326.741058 102.996422,326.998749 89.000000,326.998779 
z"/>
<path fill="#050101" opacity="1.000000" stroke="none" 
	d="
M530.998840,125.960587 
	C530.998840,126.955109 530.998840,127.455002 530.998840,127.954887 
	C530.998718,134.896317 528.422058,136.749634 521.526245,135.022827 
	C518.820740,134.345367 520.074707,132.351379 520.066101,131.022537 
	C519.965088,115.360054 520.001221,99.696693 520.001221,84.033562 
	C520.001282,73.702560 520.129028,63.369041 519.925232,53.042061 
	C519.862061,49.843090 520.638611,48.419514 523.975342,48.976330 
	C524.947998,49.138645 525.990906,49.130188 526.966858,48.977673 
	C530.190613,48.473862 531.111938,49.676281 531.080994,52.983070 
	C530.909363,71.310654 530.998779,89.640694 530.998779,107.969887 
	C530.998779,113.801910 530.998840,119.633934 530.998840,125.960587 
z"/>
<path fill="#F8F8F8" opacity="1.000000" stroke="none" 
	d="
M508.203796,250.788208 
	C518.319641,262.759216 528.165588,274.495087 538.135986,286.124237 
	C539.880493,288.158966 540.650024,290.188080 540.580872,292.862976 
	C540.418396,299.148315 540.528809,305.440735 540.528809,313.055481 
	C538.585388,310.943756 537.401978,309.747803 536.318604,308.467285 
	C520.509094,289.782043 504.748657,271.055115 488.866028,252.432343 
	C487.004761,250.250000 486.140686,248.120422 486.220764,245.262054 
	C486.396088,239.005692 486.275024,232.741028 486.275024,224.927368 
	C494.138824,234.200165 501.057495,242.358490 508.203796,250.788208 
z"/>
<path fill="#FEFEFE" opacity="1.000000" stroke="none" 
	d="
M345.824615,224.688950 
	C377.352570,209.741196 411.242493,226.148346 418.452759,259.497833 
	C424.229523,286.216949 406.348816,312.659332 378.534821,318.529388 
	C352.534058,324.016754 325.229370,305.863342 320.057220,279.650757 
	C315.614502,257.134857 325.357788,236.170502 345.824615,224.688950 
z"/>
<path fill="#FCFCFC" opacity="1.000000" stroke="none" 
	d="
M244.322327,319.002930 
	C221.982178,315.210846 206.072662,300.603729 201.322052,280.123993 
	C200.370987,276.023895 200.761917,274.315338 205.779709,274.464935 
	C219.086319,274.861542 232.414154,274.711639 245.729858,274.521027 
	C249.068237,274.473267 249.939270,275.467316 249.888779,278.727814 
	C249.703201,290.711517 249.592758,302.706146 249.931488,314.683136 
	C250.056122,319.089813 248.368683,319.812134 244.322327,319.002930 
z"/>
<path fill="#FEFEFE" opacity="1.000000" stroke="none" 
	d="
M628.051025,311.035950 
	C616.644165,303.095398 609.541016,292.698212 606.534485,279.418701 
	C605.729553,275.863464 605.876892,274.422729 610.171265,274.504211 
	C623.811096,274.762909 637.459595,274.669708 651.103149,274.542786 
	C653.920837,274.516602 655.172546,274.890930 655.112610,278.227417 
	C654.888611,290.703339 654.900208,303.187714 655.105896,315.664276 
	C655.160034,318.944336 654.154785,319.471771 651.153625,319.173706 
	C642.879578,318.351898 635.303833,315.754303 628.051025,311.035950 
z"/>
<path fill="#FDFDFD" opacity="1.000000" stroke="none" 
	d="
M602.672363,116.305443 
	C588.352234,98.548676 591.336792,73.628845 608.952576,61.542614 
	C627.878906,48.557255 655.490479,59.858063 659.921936,82.383232 
	C662.717590,96.593651 660.091187,109.410759 648.830139,119.077156 
	C635.043274,130.911636 616.117371,129.574921 602.672363,116.305443 
z"/>
<path fill="#FDFDFD" opacity="1.000000" stroke="none" 
	d="
M451.538269,109.334885 
	C445.045441,120.770187 434.622925,124.238174 422.793915,124.821594 
	C416.976929,125.108482 411.131287,124.771019 405.305969,124.952629 
	C402.761688,125.031937 401.859406,124.404892 401.874695,121.677879 
	C401.986877,101.687386 401.966156,81.695847 401.894012,61.704983 
	C401.885315,59.295803 402.268219,58.058712 405.113373,58.185852 
	C413.087189,58.542164 421.075043,57.887470 429.054291,58.961147 
	C443.234802,60.869255 453.371735,70.893791 454.985016,85.121918 
	C455.917389,93.344589 455.500427,101.418503 451.538269,109.334885 
z"/>
</svg>